HIERARCHY
ROOT root
{
	OFFSET	0	13.1	24.9
	CHANNELS 6  Xposition Yposition Zposition Xrotation Yrotation Zrotation
	JOINT spine_1
	{
		OFFSET	0	9.99999	0
		CHANNELS 3  Xrotation Yrotation Zrotation
		JOINT spine_2
		{
			OFFSET	0	112	-10
			CHANNELS 3  Xrotation Yrotation Zrotation
			JOINT spine_3
			{
				OFFSET	0	206.5	19.3
				CHANNELS 3  Xrotation Yrotation Zrotation
				JOINT spine_4
				{
					OFFSET	0	110.4	14.6
					CHANNELS 3  Xrotation Yrotation Zrotation
					JOINT neck_1
					{
						OFFSET	0	71.8	-50.3
						CHANNELS 3  Xrotation Yrotation Zrotation
						JOINT neck_2
						{
							OFFSET	0	86.2	-25.8
							CHANNELS 3  Xrotation Yrotation Zrotation
							JOINT head_ee
							{
								OFFSET	0	179.8	-8.7
								CHANNELS 3  Xrotation Yrotation Zrotation
								End Site
								{
									OFFSET	1	0	0
								}
							}
						}
					}
					JOINT left_clavicle
					{
						OFFSET	-43.2	22.4	-70.8
						CHANNELS 3  Xrotation Yrotation Zrotation
						JOINT left_shoulder
						{
							OFFSET	-93.9	-5.79999	48.7
							CHANNELS 3  Xrotation Yrotation Zrotation
							JOINT left_elbow
							{
								OFFSET	-291.4	-30.8	15.2
								CHANNELS 3  Xrotation Yrotation Zrotation
								JOINT left_lowarm_twist
								{
									OFFSET	-110.7	-3.89999	13.6
									CHANNELS 3  Xrotation Yrotation Zrotation
									JOINT left_hand
									{
										OFFSET	-110.7	-3.89999	13.6
										CHANNELS 3  Xrotation Yrotation Zrotation
										JOINT left_ee
										{
											OFFSET	-80.8	-5.10001	12.1
											CHANNELS 3  Xrotation Yrotation Zrotation
											End Site
											{
												OFFSET	1	0	0
											}
										}
									}
								}
							}
						}
					}
					JOINT right_clavicle
					{
						OFFSET	43.2	22.4	-70.8
						CHANNELS 3  Xrotation Yrotation Zrotation
						JOINT right_shoulder
						{
							OFFSET	93.9	-5.79999	48.7
							CHANNELS 3  Xrotation Yrotation Zrotation
							JOINT right_elbow
							{
								OFFSET	291.4	-30.8	15.2
								CHANNELS 3  Xrotation Yrotation Zrotation
								JOINT right_lowarm_twist
								{
									OFFSET	110.7	-3.89999	13.6
									CHANNELS 3  Xrotation Yrotation Zrotation
									JOINT right_hand
									{
										OFFSET	110.7	-3.89999	13.6
										CHANNELS 3  Xrotation Yrotation Zrotation
										JOINT right_ee
										{
											OFFSET	80.8	-5.10001	12.1
											CHANNELS 3  Xrotation Yrotation Zrotation
											End Site
											{
												OFFSET	1	0	0
											}
										}
									}
								}
							}
						}
					}
				}
			}
		}
	}
	JOINT left_hip
	{
		OFFSET	-82.8	-127.5	0.300001
		CHANNELS 3  Xrotation Yrotation Zrotation
		JOINT left_knee
		{
			OFFSET	-28.2	-396.7	2.2
			CHANNELS 3  Xrotation Yrotation Zrotation
			JOINT left_ankle
			{
				OFFSET	-11.7	-411.3	35.4
				CHANNELS 3  Xrotation Yrotation Zrotation
				JOINT left_toes
				{
					OFFSET	0	-60	-88.6
					CHANNELS 3  Xrotation Yrotation Zrotation
					JOINT left_foot_ee
					{
						OFFSET	-22.5	-16.5	-42.2
						CHANNELS 3  Xrotation Yrotation Zrotation
						End Site
						{
							OFFSET	1	0	0
						}
					}
				}
			}
		}
	}
	JOINT right_hip
	{
		OFFSET	82.8	-127.5	0.300001
		CHANNELS 3  Xrotation Yrotation Zrotation
		JOINT right_knee
		{
			OFFSET	28.2	-396.7	2.2
			CHANNELS 3  Xrotation Yrotation Zrotation
			JOINT right_ankle
			{
				OFFSET	11.7	-411.3	35.4
				CHANNELS 3  Xrotation Yrotation Zrotation
				JOINT right_toes
				{
					OFFSET	0	-60	-88.6
					CHANNELS 3  Xrotation Yrotation Zrotation
					JOINT right_foot_ee
					{
						OFFSET	22.5	-16.5	-42.2
						CHANNELS 3  Xrotation Yrotation Zrotation
						End Site
						{
							OFFSET	1	0	0
						}
					}
				}
			}
		}
	}
}
MOTION
Frames: 15
Frame Time: 0.02
3425.47 698.839 -1606.94 11.497 72.4888 -9.57218 -1.22882 0.737945 -0.0010748 -1.22912 0.736518 0.0458873 -1.22873 0.705981 0.214841 -1.22805 0.731051 0.100643 -9.11432 13.5713 -2.28607 -9.26783 27.0362 1.03472 -0.0 0.0 -0.0 0.706136 23.6697 3.69888 -14.5074 12.2022 78.1231 1.28773 -32.5326 0.375752 -18.3747 -0.996221 2.1178 -1.43033 28.4474 3.35228 -0.0 0.0 -0.0 13.4905 16.4671 -27.595 2.95402 41.3513 -65.6617 0.320197 9.01313 -0.025237 -47.4175 3.77226 -4.54106 6.33089 -27.6721 -55.3899 0.0 0.0 0.0 12.4858 20.3674 -14.7392 -31.9559 -0.0358047 4.84095 21.5257 -4.32603 -2.9756 -11.9483 0.0 0.0 -0.0 0.0 -0.0 -12.4611 -5.54748 -2.67315 3.39352 0.154547 0.497684 34.7676 20.2881 4.85989 -40.203 0.0 0.0 0.0 0.0 0.0 
3417.33 699.315 -1608.17 9.99775 70.5449 -7.63527 -1.30284 0.795238 -0.0541854 -1.30319 0.797074 -0.00346927 -1.30351 0.776067 0.181831 -1.30268 0.795043 0.0569757 -7.66705 14.2434 -1.66823 -7.70855 27.7492 1.4341 -0.0 0.0 -0.0 0.969974 24.2407 4.10427 -15.3007 16.0914 78.0509 1.15042 -29.677 0.30479 -18.136 -0.979016 2.09254 -1.47741 28.8438 3.27455 -0.0 0.0 -0.0 13.7585 18.9028 -28.0975 3.94711 41.4499 -65.8139 0.401266 11.2427 -0.0394955 -46.9278 3.71621 -4.51266 6.14933 -27.3143 -53.4436 0.0 0.0 0.0 15.223 21.3807 -14.5259 -27.6783 0.125965 4.20457 20.2172 -7.23661 -2.84593 -12.496 0.0 0.0 -0.0 0.0 -0.0 -12.8644 -5.43533 -2.66515 4.40649 0.206377 0.644418 34.5572 23.2441 4.96801 -40.2327 0.0 0.0 0.0 0.0 0.0 
3410.17 699.337 -1607.95 9.56056 70.8637 -6.86756 -1.31046 0.493614 -0.18163 -1.31058 0.504171 -0.149851 -1.31205 0.525195 -0.0285166 -1.31168 0.5141 -0.111106 -7.0901 15.4279 -0.74308 -7.09413 29.2453 2.46535 -0.0 0.0 -0.0 1.79844 24.8736 5.25604 -16.3345 17.5035 77.1325 1.06796 -27.8797 0.265088 -18.7566 -1.02397 2.15807 -1.87391 28.8297 1.13937 -0.0 0.0 -0.0 14.6094 24.5038 -29.6181 5.63769 38.5738 -64.9412 0.412656 11.5533 -0.0417465 -42.1187 3.17926 -4.20864 5.8367 -25.302 -50.2738 0.0 0.0 0.0 17.0694 23.9705 -13.7292 -19.8551 0.297335 3.01719 19.7008 -10.0316 -2.81886 -13.6063 0.0 0.0 -0.0 0.0 -0.0 -13.4022 -5.30786 -2.89776 4.87102 0.231014 0.711403 34.0875 23.4753 4.92882 -40.1317 0.0 0.0 0.0 0.0 0.0 
3405.32 697.529 -1609.8 8.55668 70.6915 -5.55719 -1.27243 0.468533 -0.144846 -1.27254 0.476801 -0.114738 -1.27362 0.49041 -0.00106026 -1.2733 0.484088 -0.0785 -5.71968 15.3004 -1.7917 -5.56498 29.5957 1.01013 -0.0 0.0 -0.0 1.81358 24.8162 5.27312 -16.9363 16.7601 76.7281 1.02836 -26.9945 0.246841 -18.0829 -0.975201 2.0869 -1.78193 28.681 1.56355 -0.0 0.0 -0.0 15.1063 26.7288 -30.5178 7.06439 37.4478 -64.2981 0.452093 12.6235 -0.0500058 -41.6454 3.12782 -4.17631 5.7672 -25.9393 -49.6194 0.0 0.0 0.0 18.6645 24.8076 -13.9415 -16.4371 0.321045 2.49337 17.1242 -11.8345 -2.50708 -14.0387 0.0 0.0 -0.0 0.0 -0.0 -13.1256 -4.67341 -3.28952 5.12882 0.244921 0.748494 33.7965 22.6059 4.85718 -40.1444 0.0 0.0 0.0 0.0 0.0 
3395.84 695.665 -1611.93 8.48331 71.0229 -5.45778 -1.26582 0.477244 -0.207998 -1.26593 0.489512 -0.177208 -1.26758 0.517253 -0.0589327 -1.26724 0.501454 -0.139886 -5.08528 15.4882 -1.46092 -4.87129 29.621 1.20904 -0.0 0.0 -0.0 1.92712 24.6718 5.41722 -17.4821 17.6842 76.2403 0.988967 -26.1 0.229235 -18.0432 -0.972355 2.08269 -1.83284 28.6737 1.28645 -0.0 0.0 -0.0 15.2256 27.3465 -30.7143 8.40978 36.3651 -64.4767 0.497791 13.8525 -0.0604709 -40.1838 2.97073 -4.07383 5.63432 -25.3129 -48.3403 0.0 0.0 0.0 19.0547 25.8436 -13.1986 -13.6613 0.317291 2.06755 16.3013 -12.5088 -2.40593 -15.093 0.0 0.0 -0.0 0.0 -0.0 -13.7554 -5.18539 -3.43794 4.8701 0.230964 0.711271 34.3438 22.0637 4.89123 -40.112 0.0 0.0 0.0 0.0 0.0 
3382.12 695.915 -1611.27 6.101 69.9018 -3.24699 -1.32035 0.695984 -0.170102 -1.32061 0.705398 -0.125468 -1.32243 0.71523 0.0421153 -1.32172 0.712905 -0.0713763 -4.15261 15.7916 -2.34237 -3.79683 30.7142 0.0910565 -0.0 0.0 -0.0 2.77097 24.9058 6.55454 -17.8345 18.0391 74.7882 0.876889 -23.4791 0.18223 -18.0632 -0.973785 2.08481 -1.92197 28.3662 0.660634 -0.0 0.0 -0.0 15.3429 27.3673 -30.9902 8.60624 36.3062 -64.362 0.561238 15.5372 -0.0765674 -40.2079 2.9733 -4.07555 5.43749 -25.7234 -46.5648 0.0 0.0 0.0 19.7754 26.4644 -13.6286 -10.6677 0.290133 1.60907 16.0186 -14.6188 -2.40097 -14.939 0.0 0.0 -0.0 0.0 -0.0 -13.9957 -5.29261 -2.90956 5.48277 0.264288 0.799316 34.4593 22.0277 4.90182 -40.2467 0.0 0.0 0.0 0.0 0.0 
3366.07 691.084 -1608.87 8.14203 71.5821 -5.66645 -1.51004 0.354062 -0.124573 -1.5101 0.361271 -0.10179 -1.51083 0.375087 -0.0136996 -1.51064 0.368216 -0.0727665 -4.68005 16.0953 -1.06839 -4.41829 30.3954 1.60451 -0.0 0.0 -0.0 3.05833 24.8731 6.93838 -18.5717 18.8132 74.5717 0.809141 -21.842 0.156126 -18.4302 -1.00024 2.12366 -2.00214 27.8658 -0.0136 -0.0 0.0 -0.0 15.4043 26.98 -31.1921 9.32637 36.398 -64.4391 0.615833 16.9653 -0.0918468 -39.3839 2.88588 -4.01606 5.35982 -25.7239 -45.8772 0.0 0.0 0.0 19.9753 24.879 -12.7551 -8.5256 0.256018 1.28217 14.4209 -15.6444 -2.1938 -15.3352 0.0 0.0 -0.0 0.0 -0.0 -14.8303 -5.3098 -2.1869 4.98287 0.237027 0.727503 34.9929 21.7376 4.9448 -40.3029 0.0 0.0 0.0 0.0 0.0 
3350.85 687.994 -1607.76 9.77019 71.3755 -7.41858 -1.55945 0.646932 -0.169543 -1.55967 0.656409 -0.128032 -1.56139 0.668059 0.0310091 -1.56077 0.664572 -0.0748922 -5.14958 16.6895 0.110298 -4.95064 30.6943 3.04158 -0.0 0.0 -0.0 3.40512 24.9392 7.40389 -19.8727 19.7852 74.1969 0.802334 -21.6754 0.153603 -19.2276 -1.05855 2.20748 -2.23421 26.5424 -1.93623 -0.0 0.0 -0.0 15.1834 26.2404 -30.7678 9.39714 36.0439 -64.4757 0.699506 19.112 -0.117761 -34.6011 2.39614 -3.64657 5.34187 -23.3255 -45.5275 0.0 0.0 0.0 20.2988 25.3384 -13.03 -7.28122 0.230594 1.09291 11.2551 -18.0193 -1.76909 -15.4865 0.0 0.0 -0.0 0.0 -0.0 -14.2842 -5.35936 -2.16221 -0.307413 -0.0125362 -0.0455099 36.1748 18.7117 4.93994 -40.1443 0.0 0.0 0.0 0.0 0.0 
3335.37 682.546 -1611.93 11.1683 71.8989 -8.579 -1.63592 0.500008 -0.180288 -1.63605 0.510466 -0.148105 -1.63753 0.531048 -0.0223384 -1.63715 0.520855 -0.105929 -5.17074 17.1536 0.274835 -4.96541 31.4369 3.2968 -0.0 0.0 -0.0 3.47757 24.9746 7.50119 -19.77 20.6306 72.8817 0.757625 -20.5713 0.13749 -17.859 -0.959181 2.06313 -1.96334 27.9076 0.217246 -0.0 0.0 -0.0 14.911 25.6598 -30.1951 10.7048 35.7232 -65.2959 0.828144 22.3052 -0.163267 -33.3061 2.26902 -3.53964 5.25017 -21.3414 -44.4704 0.0 0.0 0.0 20.682 24.2435 -12.9378 -5.85967 0.196526 0.877423 10.2655 -17.9804 -1.61962 -15.4973 0.0 0.0 -0.0 0.0 -0.0 -16.0627 -4.38214 -1.41206 -1.84047 -0.0713936 -0.273414 38.1949 21.2308 5.2409 -39.5118 0.0 0.0 0.0 0.0 0.0 
3320.92 680.202 -1613.57 12.0511 73.6364 -9.54433 -1.81187 0.216044 -0.174523 -1.81189 0.226711 -0.160422 -1.81256 0.25869 -0.101056 -1.81249 0.239484 -0.140643 -4.79601 18.4482 0.522458 -4.51176 33.5859 3.66163 -0.0 0.0 -0.0 3.6736 24.5873 7.76463 -18.5881 21.1701 72.188 0.724172 -19.7346 0.125964 -17.1061 -0.905998 1.98272 -1.70652 27.5091 1.42751 -0.0 0.0 -0.0 14.6935 25.4843 -29.7007 11.3132 34.7408 -65.5263 0.985112 26.0117 -0.227542 -28.2816 1.79962 -3.09853 4.8885 -16.364 -40.4056 0.0 0.0 0.0 20.4841 23.6492 -12.0858 -0.529184 0.0214281 0.0783819 9.45494 -18.5272 -1.50361 -15.4283 0.0 0.0 -0.0 0.0 -0.0 -16.3046 -3.54652 -1.37746 -5.07629 -0.175469 -0.759045 39.0699 21.4046 5.33113 -37.3226 0.0 0.0 0.0 0.0 0.0 
3312.84 677.402 -1611.36 13.4187 73.5567 -11.0794 -1.96347 0.173925 -0.101085 -1.96349 0.180005 -0.0898127 -1.96379 0.196459 -0.0432667 -1.96375 0.18716 -0.0737508 -4.95454 18.6205 1.00162 -4.69472 33.5816 4.22813 -0.0 0.0 -0.0 3.98479 24.3631 8.18854 -18.4523 21.5773 72.1048 0.753169 -20.4604 0.135928 -16.9492 -0.89505 1.96588 -1.74053 28.0699 1.50258 -0.0 0.0 -0.0 14.524 25.3069 -29.321 11.8139 34.6459 -65.9323 1.09056 28.3785 -0.275743 -25.7509 1.57837 -2.86133 4.93898 -15.0925 -40.5252 0.0 0.0 0.0 21.9712 23.0039 -12.1686 2.26812 -0.100024 -0.333639 7.14801 -22.0579 -1.18556 -16.4609 0.0 0.0 -0.0 0.0 -0.0 -17.8669 -3.13815 -0.812793 -4.6042 -0.161998 -0.687848 38.3181 22.6908 5.32097 -37.0933 0.0 0.0 0.0 0.0 0.0 
3305.28 674.564 -1607.96 13.4489 73.0542 -11.1021 -2.07047 0.445367 -0.0725482 -2.07058 0.449081 -0.0440607 -2.07104 0.446163 0.0674775 -2.07076 0.451221 -0.00383391 -3.72358 19.1757 0.0479842 -3.24786 35.076 2.9485 -0.0 0.0 -0.0 4.40922 24.2375 8.77087 -17.211 21.7085 71.8993 0.712234 -19.4339 0.121963 -16.6557 -0.874691 1.93429 -1.82664 28.4097 1.19569 -0.0 0.0 -0.0 14.612 26.1346 -29.4257 12.8388 32.4328 -65.2688 1.07313 27.9941 -0.267509 -23.8403 1.41842 -2.67595 4.29699 -12.6949 -34.6347 0.0 0.0 0.0 23.5792 22.1544 -12.6667 2.60302 -0.115911 -0.382565 5.64916 -21.8341 -0.939983 -16.3814 0.0 0.0 -0.0 0.0 -0.0 -17.9397 -2.7758 -0.834627 -3.67086 -0.133639 -0.547417 37.095 21.5447 5.14865 -37.359 0.0 0.0 0.0 0.0 0.0 
3288.94 669.852 -1605.12 10.2259 73.2242 -7.46107 -2.10557 0.483624 -0.0549193 -2.1057 0.486139 -0.024033 -2.10604 0.477116 0.0962767 -2.10573 0.486333 0.0197151 -2.47397 19.2811 -0.536936 -1.78828 35.4613 1.94637 -0.0 0.0 -0.0 4.79694 24.4037 9.29791 -17.121 21.9306 71.7709 0.717382 -19.5637 0.123681 -16.3366 -0.852749 1.89985 -1.84389 28.6384 1.21035 -0.0 0.0 -0.0 14.8346 26.5233 -29.9013 13.3753 31.4255 -65.1396 1.07645 28.0677 -0.269074 -20.9339 1.18724 -2.3841 3.96499 -10.2655 -31.3265 0.0 0.0 0.0 25.1137 21.9024 -12.7996 4.54449 -0.213639 -0.664339 5.95049 -21.8047 -0.988764 -16.1009 0.0 0.0 -0.0 0.0 -0.0 -18.4572 -2.47167 -0.943482 -2.46819 -0.0937272 -0.36716 37.1091 22.1277 5.17673 -36.4347 0.0 0.0 0.0 0.0 0.0 
3276.36 671.315 -1600.07 7.78991 73.3991 -5.02197 -2.13017 0.518347 -0.0601965 -2.13032 0.521127 -0.0270898 -2.13073 0.511737 0.10214 -2.13036 0.521446 0.0200366 -2.01638 19.2171 -0.262434 -1.28905 35.0363 2.08821 -0.0 0.0 -0.0 5.04203 24.2651 9.64002 -16.3054 21.8855 72.2912 0.772325 -20.9361 0.142699 -16.2136 -0.844335 1.88652 -1.79943 28.6819 1.4699 -0.0 0.0 -0.0 14.824 26.9668 -29.8162 13.5749 30.0081 -64.7241 1.0752 28.0401 -0.268485 -19.2705 1.06172 -2.21197 3.69113 -8.14222 -28.5622 0.0 0.0 0.0 26.3309 21.48 -13.2643 5.88287 -0.286557 -0.856621 5.40621 -24.396 -0.925101 -16.1108 0.0 0.0 -0.0 0.0 -0.0 -19.3735 -1.63188 -0.345693 -0.582236 -0.0235359 -0.0862506 34.6764 22.1692 4.93098 -36.049 0.0 0.0 0.0 0.0 0.0 
3260.3 667.138 -1595.07 6.00302 73.8552 -2.72159 -2.10371 0.568629 -0.0334974 -2.10389 0.569609 0.00275503 -2.10404 0.551438 0.142751 -2.10362 0.567062 0.0538676 -1.45562 18.9993 -0.670051 -0.648432 34.8385 1.45726 -0.0 0.0 -0.0 5.21535 25.1685 9.83636 -15.9008 21.9199 71.9694 0.81662 -22.0246 0.15892 -16.1216 -0.838067 1.87656 -1.77608 28.5146 1.51742 -0.0 0.0 -0.0 14.8783 27.0656 -29.9308 14.1921 28.6515 -64.1744 1.07802 28.1024 -0.269813 -16.3395 0.852946 -1.90016 3.19876 -5.42896 -23.9925 0.0 0.0 0.0 27.4021 21.177 -13.4292 6.33511 -0.312213 -0.921211 2.90964 -27.0077 -0.517823 -16.6355 0.0 0.0 -0.0 0.0 -0.0 -20.4627 -0.973899 -0.175226 -1.55726 -0.0609804 -0.231198 34.148 22.3106 4.88148 -35.2349 0.0 0.0 0.0 0.0 0.0 
